<svg xmlns="http://www.w3.org/2000/svg" xmlns:xlink="http://www.w3.org/1999/xlink" preserveAspectRatio="xMidYMid" width="290" height="150" viewBox="0 0 290 150">
  <defs>
    <style>
      .cls-1 {
        fill: #fff;
      }

      .cls-1, .cls-2 {
        fill-rule: evenodd;
      }

      .cls-2 {
        fill: #008580;
      }
    </style>
  </defs>
  <g>
    <path d="M289.989,149.989 L288.007,149.989 L288.007,-0.009 L289.989,-0.009 L289.989,149.989 ZM1.993,149.990 L0.011,149.990 L0.011,-0.009 L1.993,-0.009 L1.993,149.990 Z" class="cls-1"/>
    <path d="M284.007,105.989 L284.007,-0.009 L285.989,-0.009 L285.989,105.989 L284.007,105.989 ZM282.671,147.085 C282.218,147.649 281.640,148.345 280.934,148.672 C280.228,149.000 279.411,149.413 278.421,149.413 C277.541,149.413 276.762,149.249 276.084,148.922 C275.405,148.594 274.837,148.146 274.378,147.579 C273.920,147.011 273.573,146.348 273.338,145.590 C273.103,144.833 272.985,144.027 272.985,143.175 L272.985,131.972 L275.130,131.972 L275.130,143.235 C275.130,143.936 275.223,144.598 275.410,145.218 C275.596,145.836 275.864,146.379 276.212,146.844 C276.560,147.310 276.979,147.678 277.468,147.946 C277.957,148.214 278.504,148.098 279.109,148.098 C279.720,148.098 280.238,147.714 280.727,147.446 C281.216,147.178 281.632,146.811 281.974,146.345 C282.316,145.879 282.579,145.336 282.762,144.718 C282.946,144.098 283.037,143.437 283.037,142.735 L283.037,131.972 L283.982,131.972 L283.982,142.735 C283.982,143.579 283.876,144.375 283.665,145.121 C283.455,145.866 283.123,146.520 282.671,147.085 ZM253.999,102.166 C253.686,104.437 251.885,106.003 249.927,106.003 L240.013,106.003 L240.013,102.008 L247.466,102.008 C247.859,101.851 248.015,101.617 248.015,101.146 L248.015,82.007 L226.024,82.007 L226.024,78.012 L247.983,78.012 L247.983,76.602 C250.334,73.859 252.105,71.947 255.081,65.994 L236.974,65.994 L236.974,61.984 L262.364,61.984 L262.364,65.682 C260.250,70.147 257.275,73.703 254.141,77.620 L254.141,78.012 L274.003,78.012 L274.003,82.022 L253.999,82.022 L253.999,102.166 ZM268.003,53.996 L231.976,53.996 L231.976,65.994 L226.024,65.994 L226.024,50.003 L235.970,50.003 L235.970,36.002 L241.998,36.002 L242.000,50.003 L247.984,50.003 L247.984,36.002 L253.998,36.002 L253.998,50.003 L257.822,50.003 L262.754,36.111 L268.629,36.580 L263.225,50.003 L273.971,50.003 L273.971,65.994 L268.003,65.994 L268.003,53.996 ZM226.498,133.038 L219.769,133.038 L219.769,140.057 L225.770,140.057 L225.770,141.122 L219.769,141.122 L219.769,149.082 L217.000,149.085 L217.000,131.972 L226.498,131.972 L226.498,133.038 ZM213.989,-0.009 L216.002,-0.009 L216.002,105.989 L213.989,105.989 L213.989,-0.009 ZM212.089,144.581 C211.789,145.229 211.425,145.818 210.998,146.351 C210.570,146.883 210.096,147.340 209.577,147.717 C209.058,148.096 208.495,148.390 207.890,148.599 C207.285,148.809 206.653,148.913 205.993,148.913 C205.333,148.913 204.700,148.809 204.095,148.599 C203.490,148.390 202.928,148.096 202.409,147.717 C201.889,147.340 201.416,146.883 200.988,146.351 C200.560,145.818 200.196,145.229 199.897,144.581 C199.598,143.935 199.366,143.241 199.201,142.498 C199.035,141.757 198.953,140.983 198.953,140.178 C198.953,139.390 199.035,138.632 199.201,137.906 C199.366,137.180 199.598,136.501 199.897,135.871 C200.196,135.240 200.560,134.665 200.988,134.149 C201.416,133.632 201.889,133.187 202.409,132.816 C202.928,132.445 203.490,132.160 204.095,131.959 C204.700,131.757 205.333,131.657 205.993,131.657 C206.653,131.657 207.285,131.757 207.890,131.959 C208.495,132.160 209.058,132.445 209.577,132.816 C210.096,133.187 210.570,133.632 210.998,134.149 C211.425,134.665 211.789,135.240 212.089,135.871 C212.388,136.501 212.620,137.180 212.785,137.906 C212.950,138.632 213.033,139.390 213.033,140.178 C213.033,140.975 212.950,141.747 212.785,142.492 C212.620,143.239 212.388,143.935 212.089,144.581 ZM210.214,137.071 C210.015,136.128 209.725,135.316 209.343,134.634 C208.961,133.951 208.489,133.421 207.927,133.041 C207.365,132.663 206.720,132.473 205.993,132.473 C205.247,132.473 204.592,132.663 204.026,133.041 C203.461,133.421 202.989,133.951 202.610,134.634 C202.231,135.316 201.946,136.128 201.753,137.071 C201.561,138.015 201.465,139.050 201.465,140.178 C201.465,141.323 201.561,142.378 201.753,143.344 C201.946,144.311 202.231,145.145 202.610,145.848 C202.989,146.551 203.461,147.099 204.026,147.494 C204.592,147.887 205.247,148.085 205.993,148.085 C206.720,148.085 207.365,147.887 207.927,147.494 C208.489,147.099 208.961,146.551 209.343,145.848 C209.725,145.145 210.015,144.311 210.214,143.344 C210.413,142.378 210.512,141.323 210.512,140.178 C210.512,139.050 210.413,138.015 210.214,137.071 ZM202.525,105.582 C192.031,97.280 184.434,87.177 180.753,74.411 C175.035,93.754 160.702,102.371 157.727,105.973 L155.064,103.154 C170.650,89.136 177.463,75.882 177.307,59.983 L157.993,59.983 L157.993,56.006 L177.995,56.006 L177.995,35.565 C179.561,35.643 183.697,36.112 184.012,36.348 L184.012,56.006 L203.982,56.006 L203.982,59.983 L184.574,59.983 C184.732,74.552 187.880,85.376 206.676,99.708 L202.525,105.582 ZM152.702,147.523 C152.317,147.953 151.838,148.292 151.267,148.541 C150.696,148.789 148.531,148.913 147.773,148.913 C147.162,148.913 146.615,148.826 146.133,148.652 C145.650,148.479 145.224,148.227 144.854,147.896 C144.484,147.564 144.168,147.157 143.905,146.677 C143.642,146.195 143.426,145.651 143.254,145.043 L144.409,144.428 C144.543,144.965 144.724,145.446 144.950,145.871 C145.176,146.297 145.441,146.659 145.743,146.954 C146.045,147.250 146.381,147.475 146.751,147.629 C147.121,147.783 147.513,147.860 147.929,147.860 C148.247,147.860 150.060,147.805 150.369,147.694 C150.677,147.584 150.952,147.417 151.194,147.197 C151.435,146.977 151.629,146.706 151.776,146.387 C151.923,146.067 151.996,145.698 151.996,145.280 C151.996,144.775 151.895,144.327 151.694,143.936 C151.492,143.546 151.227,143.185 150.901,142.854 C150.573,142.522 150.199,142.212 149.778,141.925 C149.356,141.637 147.427,141.346 146.989,141.054 C146.553,140.762 146.123,140.456 145.702,140.136 C145.280,139.818 144.906,139.463 144.578,139.073 C144.252,138.682 143.987,138.244 143.786,137.758 C143.584,137.273 143.483,136.715 143.483,136.084 C143.483,135.452 143.575,134.867 143.758,134.325 C143.942,133.785 144.211,133.318 144.565,132.923 C144.919,132.529 145.355,132.219 145.871,131.994 C146.388,131.769 146.982,131.657 147.654,131.657 C148.864,131.657 151.319,131.984 152.019,132.639 C152.719,133.294 153.224,134.241 153.536,135.480 L152.436,136.131 C152.308,135.626 152.144,135.164 151.946,134.745 C151.747,134.328 151.509,133.969 151.230,133.669 C150.952,133.369 150.633,133.138 150.273,132.976 C149.912,132.815 148.006,132.734 147.554,132.734 C147.150,132.734 146.797,132.807 146.495,132.953 C146.192,133.099 145.942,133.288 145.743,133.521 C145.544,133.754 145.394,134.019 145.294,134.314 C145.193,134.609 145.142,134.912 145.142,135.219 C145.142,135.653 145.246,136.050 145.454,136.409 C145.662,136.768 145.934,137.110 146.270,137.433 C146.606,137.757 146.991,138.067 147.425,138.361 C147.859,138.658 149.800,138.960 150.250,139.267 C150.699,139.575 151.140,139.894 151.574,140.226 C152.008,140.557 152.393,140.920 152.729,141.315 C153.065,141.710 153.337,142.142 153.545,142.611 C153.753,143.080 153.857,143.604 153.857,144.179 C153.857,144.834 153.760,145.447 153.568,146.020 C153.376,146.592 153.086,147.093 152.702,147.523 ZM143.985,-0.009 L145.998,-0.009 L145.998,105.989 L143.985,105.989 L143.985,-0.009 ZM136.871,148.961 L132.434,140.895 L131.395,140.895 L131.395,140.067 L132.168,140.067 C132.651,140.067 133.096,139.984 133.502,139.818 C133.908,139.653 134.261,139.418 134.561,139.114 C134.860,138.811 135.094,138.442 135.262,138.007 C135.430,137.573 135.514,137.088 135.514,136.552 C135.514,136.063 135.447,135.423 135.312,135.009 C135.178,134.595 134.992,134.240 134.753,133.943 C134.515,133.648 134.231,133.417 133.901,133.251 C133.571,133.085 133.210,133.003 132.819,133.003 L129.431,133.003 L129.431,148.773 L126.973,148.773 L126.973,131.972 L133.204,131.972 C133.974,131.972 134.648,132.079 135.225,132.293 C135.803,132.505 136.284,132.804 136.669,133.187 C137.054,133.569 137.344,134.023 137.540,134.547 C137.736,135.073 137.833,135.833 137.833,136.457 C137.833,136.970 137.758,137.450 137.609,137.895 C137.459,138.341 137.247,138.743 136.971,139.102 C136.697,139.461 136.367,139.773 135.982,140.037 C135.597,140.302 135.172,140.505 134.707,140.647 L139.355,148.961 L136.871,148.961 ZM131.976,72.013 L118.018,72.013 L118.018,80.002 L131.974,80.002 L131.974,83.967 L118.018,83.967 L118.018,92.018 L132.005,92.018 L132.005,96.012 L117.971,96.012 L117.971,106.004 L111.987,106.004 L111.987,96.012 L100.552,96.012 L100.552,92.018 L111.972,92.018 L111.972,83.967 L100.974,83.967 L100.974,80.002 L111.972,80.002 L111.972,72.013 L100.974,72.013 L100.974,68.005 L111.972,68.005 L111.972,59.999 L100.552,59.999 L100.552,56.006 L111.972,56.006 L111.972,48.003 L101.005,48.003 L101.005,43.992 L111.987,43.992 L111.987,35.659 C113.396,35.659 116.406,35.815 117.971,36.207 L117.971,44.008 L132.005,44.023 L132.005,56.022 L135.984,56.006 L135.984,59.999 L131.976,59.999 L131.976,72.013 ZM125.974,48.003 L118.018,48.003 L118.018,55.990 L125.974,55.990 L125.974,48.003 ZM125.974,60.015 L118.018,60.015 L118.018,68.003 L125.974,68.003 L125.974,60.015 ZM109.101,131.972 L110.118,131.972 L104.316,149.289 L103.766,149.289 L97.542,131.972 L99.806,131.972 L104.619,145.525 L109.101,131.972 ZM85.357,46.465 L87.393,42.941 C91.624,45.057 94.523,46.622 99.456,49.991 L96.324,54.533 C92.720,51.478 91.233,50.382 85.357,46.465 ZM97.342,67.614 C96.324,69.101 95.228,70.668 94.210,72.154 C90.762,69.415 87.158,66.673 83.243,64.010 L85.435,60.562 C90.528,63.148 94.130,65.655 97.342,67.614 ZM84.993,144.460 L84.993,131.972 L85.937,131.972 L85.937,149.289 L85.442,149.289 L76.032,135.441 L75.959,135.441 L75.959,148.898 L74.997,148.898 L74.997,131.972 L76.197,131.972 L84.910,144.460 L84.993,144.460 ZM73.998,-0.009 L76.011,-0.009 L76.011,105.989 L73.998,105.989 L73.998,-0.009 ZM68.671,147.085 C68.219,147.649 67.640,148.345 66.934,148.672 C66.228,149.000 65.411,149.413 64.421,149.413 C63.541,149.413 62.762,149.249 62.084,148.922 C61.405,148.594 60.837,148.146 60.378,147.579 C59.920,147.011 59.573,146.348 59.338,145.590 C59.103,144.833 58.985,144.027 58.985,143.175 L58.985,131.972 L61.130,131.972 L61.130,143.235 C61.130,143.936 61.223,144.598 61.410,145.218 C61.596,145.836 61.864,146.379 62.212,146.844 C62.560,147.310 62.979,147.678 63.468,147.946 C63.957,148.214 64.504,148.098 65.109,148.098 C65.720,148.098 66.238,147.714 66.728,147.446 C67.216,147.178 67.632,146.811 67.974,146.345 C68.316,145.879 68.579,145.336 68.762,144.718 C68.946,144.098 69.037,143.437 69.037,142.735 L69.037,131.972 L69.982,131.972 L69.982,142.735 C69.982,143.579 69.876,144.375 69.665,145.121 C69.455,145.866 69.123,146.520 68.671,147.085 ZM57.791,65.981 L21.764,65.981 L16.829,70.759 L14.011,68.173 C21.059,60.734 29.361,48.908 35.548,36.689 C36.957,36.846 41.344,37.238 41.501,37.238 C46.435,45.695 55.128,55.957 66.330,64.962 C66.330,65.041 62.413,69.585 62.099,69.897 L57.791,65.981 ZM39.700,43.035 L39.465,43.035 C35.470,49.612 30.692,55.800 25.367,61.987 L54.111,61.987 C49.725,57.209 43.067,49.143 39.700,43.035 ZM4.011,-0.009 L5.993,-0.009 L5.993,105.990 L4.011,105.990 L4.011,-0.009 ZM16.760,133.070 L12.140,133.070 L12.140,148.961 L9.995,148.961 L9.995,133.070 L5.365,133.070 L5.365,131.972 L16.760,131.972 L16.760,133.070 ZM27.935,79.970 L19.979,79.970 L19.979,76.008 L59.969,76.008 L59.969,79.970 L35.298,79.970 L27.230,100.974 C27.230,101.130 27.152,101.913 27.466,101.992 L53.546,101.992 C52.058,98.311 50.805,94.395 48.848,90.010 L53.312,87.817 C56.130,93.377 58.322,97.920 60.047,101.523 C59.340,102.855 58.637,104.421 57.775,105.987 L44.617,105.987 L21.827,105.987 L19.947,101.992 L28.248,80.438 C28.328,80.360 28.092,79.970 27.935,79.970 ZM23.264,139.989 L29.993,139.989 L29.993,131.972 L31.951,131.972 L31.951,148.961 L29.993,148.961 L29.993,141.054 L23.264,141.054 L23.264,148.961 L20.994,148.961 L20.994,131.972 L23.264,131.972 L23.264,139.989 ZM46.498,133.038 L39.769,133.038 L39.769,140.026 L45.770,140.026 L45.770,141.091 L39.769,141.091 L39.769,147.988 L46.498,147.988 L46.498,149.054 L37.000,149.054 L37.000,131.972 L46.498,131.972 L46.498,133.038 ZM93.894,78.421 L98.282,79.907 C94.914,92.752 92.954,98.001 90.841,104.188 L84.810,101.918 C90.762,87.270 92.642,81.945 93.894,78.421 ZM93.167,149.023 L91.022,149.023 L91.022,131.972 L93.167,131.972 L93.167,149.023 ZM122.498,133.038 L115.769,133.038 L115.769,140.026 L121.770,140.026 L121.770,141.091 L115.769,141.091 L115.769,147.988 L122.498,147.988 L122.498,149.054 L113.000,149.054 L113.000,131.972 L122.498,131.972 L122.498,133.038 ZM161.167,149.023 L159.022,149.023 L159.022,131.972 L161.167,131.972 L161.167,149.023 ZM177.760,133.070 L173.140,133.070 L173.140,148.961 L170.995,148.961 L170.995,133.070 L166.365,133.070 L166.365,131.972 L177.760,131.972 L177.760,133.070 ZM186.536,140.329 L190.945,131.972 L192.109,131.972 L187.159,141.335 L187.159,148.961 L185.014,148.961 L185.014,141.595 L179.908,131.972 L182.108,131.972 L186.536,140.329 ZM240.802,131.969 L246.815,148.961 L244.633,148.961 L242.681,143.457 L237.209,143.457 L235.192,148.961 L234.119,148.961 L240.270,131.969 L240.802,131.969 ZM237.584,142.392 L242.287,142.392 L239.967,135.745 L237.584,142.392 ZM253.167,149.023 L251.022,149.023 L251.022,131.972 L253.167,131.972 L253.167,149.023 ZM259.906,148.020 L269.146,148.020 L269.146,149.085 L257.018,149.085 L257.018,148.670 L265.983,133.038 L257.018,133.038 L257.018,131.972 L269.146,131.972 L259.906,148.020 Z" class="cls-2"/>
  </g>
</svg>
